<svg xmlns="http://www.w3.org/2000/svg" width="26" height="26" viewBox="0 0 26 26" fill="none">
  <ellipse cx="12.5056" cy="13.5216" rx="8.33766" ry="7.81656" fill="#A6A9B1"/>
  <path fill-rule="evenodd" clip-rule="evenodd" d="M12.5063 22.3808C13.7381 22.3808 14.9578 22.1382 16.0959 21.6668C17.2339 21.1955 18.2679 20.5045 19.1389 19.6335C20.0099 18.7625 20.7008 17.7285 21.1722 16.5905C21.6436 15.4525 21.8862 14.2327 21.8862 13.001C21.8862 11.7692 21.6436 10.5495 21.1722 9.41145C20.7008 8.27343 20.0099 7.2394 19.1389 6.36839C18.2679 5.49739 17.2339 4.80648 16.0959 4.33509C14.9578 3.86371 13.7381 3.62109 12.5063 3.62109C10.0186 3.62109 7.63283 4.60933 5.87377 6.36839C4.1147 8.12746 3.12646 10.5133 3.12646 13.001C3.12646 15.4887 4.1147 17.8745 5.87377 19.6335C7.63283 21.3926 10.0186 22.3808 12.5063 22.3808ZM12.2645 16.7946L17.4756 10.5414L15.8748 9.20733L11.3933 14.5841L9.07435 12.2641L7.60067 13.7378L10.7273 16.8644L11.534 17.6711L12.2645 16.7946Z" fill="#171717"/>
  <path d="M22.7391 13.0002C22.7391 18.6515 18.1578 23.2328 12.5065 23.2328C6.85521 23.2328 2.27393 18.6515 2.27393 13.0002C2.27393 7.34886 6.85521 2.76758 12.5065 2.76758C18.1578 2.76758 22.7391 7.34886 22.7391 13.0002ZM3.97119 13.0002C3.97119 17.7141 7.79258 21.5355 12.5065 21.5355C17.2204 21.5355 21.0418 17.7141 21.0418 13.0002C21.0418 8.28624 17.2204 4.46484 12.5065 4.46484C7.79258 4.46484 3.97119 8.28624 3.97119 13.0002Z" fill="#A6A9B1"/>
</svg>