<svg xmlns="http://www.w3.org/2000/svg" width="24" height="24" viewBox="0 0 24 24" fill="none">
  <path d="M18.3652 15.5362L16.9512 14.1202L18.3652 12.7062C19.2961 11.7671 19.8171 10.4976 19.8142 9.17527C19.8113 7.85298 19.2848 6.58568 18.3498 5.65068C17.4148 4.71568 16.1475 4.18912 14.8252 4.18623C13.5029 4.18333 12.2333 4.70434 11.2942 5.63523L9.87923 7.05023L8.46523 5.63623L9.87923 4.22223C11.1921 2.90941 12.9726 2.17188 14.8292 2.17188C16.6858 2.17188 18.4664 2.90941 19.7792 4.22223C21.0921 5.53505 21.8296 7.31562 21.8296 9.17223C21.8296 11.0288 21.0921 12.8094 19.7792 14.1222L18.3652 15.5362ZM15.5362 18.3642L14.1222 19.7782C12.8094 21.0911 11.0288 21.8286 9.17223 21.8286C7.31562 21.8286 5.53505 21.0911 4.22223 19.7782C2.90941 18.4654 2.17188 16.6848 2.17188 14.8282C2.17187 12.9716 2.90941 11.1911 4.22223 9.87823L5.63723 8.46423L7.05123 9.88023L5.63723 11.2942C4.7191 12.2358 4.2089 13.5012 4.21714 14.8163C4.22538 16.1313 4.7514 17.3902 5.68126 18.3202C6.61111 19.2502 7.86992 19.7764 9.185 19.7848C10.5001 19.7933 11.7655 19.2832 12.7072 18.3652L14.1222 16.9512L15.5362 18.3642ZM14.8292 7.75723L16.2442 9.17223L9.17223 16.2422L7.75823 14.8282L14.8292 7.75723Z" fill="#545454"/>
</svg>